<svg width="146" height="44" viewBox="0 0 146 44" fill="none" xmlns="http://www.w3.org/2000/svg">
<path d="M136.985 23.6139C135.344 23.6139 133.933 23.2788 132.753 22.6084C131.572 21.9281 130.662 20.9626 130.021 19.7119C129.391 18.4613 129.076 16.9805 129.076 15.2696V15.2546C129.076 13.5437 129.391 12.0629 130.021 10.8123C130.662 9.55163 131.557 8.58113 132.708 7.90077C133.868 7.21041 135.234 6.86523 136.805 6.86523C138.376 6.86523 139.731 7.20041 140.872 7.87076C142.022 8.5311 142.908 9.46659 143.528 10.6772C144.159 11.8878 144.474 13.3036 144.474 14.9244V16.2751H131.222V13.5137H142.403L140.317 16.095V14.4142C140.317 13.4737 140.171 12.6883 139.881 12.0579C139.591 11.4176 139.186 10.9373 138.666 10.6172C138.155 10.297 137.56 10.1369 136.88 10.1369C136.199 10.1369 135.594 10.302 135.064 10.6322C134.544 10.9624 134.133 11.4476 133.833 12.0879C133.543 12.7183 133.398 13.4937 133.398 14.4142V16.11C133.398 17.0005 133.543 17.7609 133.833 18.3912C134.133 19.0215 134.559 19.5068 135.109 19.847C135.659 20.1771 136.314 20.3422 137.075 20.3422C137.675 20.3422 138.195 20.2472 138.636 20.0571C139.076 19.867 139.436 19.6269 139.716 19.3367C139.996 19.0466 140.186 18.7514 140.287 18.4513L140.317 18.3612H144.339L144.294 18.5263C144.174 19.1166 143.938 19.7119 143.588 20.3122C143.238 20.9125 142.763 21.4628 142.162 21.9631C141.572 22.4633 140.847 22.8635 139.986 23.1637C139.136 23.4639 138.135 23.6139 136.985 23.6139Z" fill="#3C4F5F"/>
<path d="M118.24 23.2837L112.672 7.19531H117.355L120.717 19.4117H120.807L124.123 7.19531H128.701L123.178 23.2837H118.24Z" fill="#3C4F5F"/>
<path d="M106.669 23.2838V7.19546H111.051V23.2838H106.669ZM108.86 5.12438C108.2 5.12438 107.644 4.89926 107.194 4.44903C106.744 3.9988 106.519 3.46352 106.519 2.8432C106.519 2.21287 106.744 1.67759 107.194 1.23736C107.644 0.787129 108.2 0.562012 108.86 0.562012C109.52 0.562012 110.076 0.787129 110.526 1.23736C110.976 1.67759 111.201 2.21287 111.201 2.8432C111.201 3.46352 110.976 3.9988 110.526 4.44903C110.076 4.89926 109.52 5.12438 108.86 5.12438Z" fill="#3C4F5F"/>
<path d="M96.7939 23.2838V10.4971H94.6028V7.19543H96.7939V5.90476C96.7939 4.85421 96.969 3.98876 97.3192 3.30841C97.6794 2.62805 98.2447 2.12279 99.0151 1.79262C99.7955 1.46245 100.821 1.29736 102.092 1.29736C102.492 1.29736 102.897 1.31737 103.307 1.35739C103.718 1.38741 104.048 1.42743 104.298 1.47746V4.37396C104.148 4.34395 103.973 4.32394 103.773 4.31393C103.572 4.30393 103.372 4.29892 103.172 4.29892C102.452 4.29892 101.922 4.449 101.581 4.74916C101.241 5.04931 101.071 5.48954 101.071 6.06984V7.19543H104.268V10.4971H101.176V23.2838H96.7939Z" fill="#3C4F5F"/>
<path d="M88.2992 23.2838V7.19546H92.6815V23.2838H88.2992ZM90.4904 5.12438C89.83 5.12438 89.2748 4.89926 88.8245 4.44903C88.3743 3.9988 88.1492 3.46352 88.1492 2.8432C88.1492 2.21287 88.3743 1.67759 88.8245 1.23736C89.2748 0.787129 89.83 0.562012 90.4904 0.562012C91.1507 0.562012 91.706 0.787129 92.1563 1.23736C92.6065 1.67759 92.8316 2.21287 92.8316 2.8432C92.8316 3.46352 92.6065 3.9988 92.1563 4.44903C91.706 4.89926 91.1507 5.12438 90.4904 5.12438Z" fill="#3C4F5F"/>
<path d="M70.5005 23.2838V7.19541H74.8828V9.83678H74.9728C75.393 8.9163 76.0134 8.19092 76.8338 7.66065C77.6542 7.13037 78.6697 6.86523 79.8804 6.86523C81.6513 6.86523 83.017 7.40051 83.9775 8.47107C84.948 9.53162 85.4332 11.0074 85.4332 12.8984V23.2838H81.051V13.7988C81.051 12.7483 80.8008 11.9379 80.3006 11.3676C79.8103 10.7873 79.0749 10.4971 78.0944 10.4971C77.4441 10.4971 76.8788 10.6472 76.3986 10.9474C75.9183 11.2375 75.5431 11.6477 75.273 12.178C75.0128 12.7083 74.8828 13.3286 74.8828 14.039V23.2838H70.5005Z" fill="#3C4F5F"/>
<path d="M58.2687 23.6138C57.0881 23.6138 56.0826 23.3737 55.2521 22.8935C54.4317 22.4032 53.8014 21.7079 53.3612 20.8074C52.9309 19.9069 52.7158 18.8314 52.7158 17.5807V7.19531H57.0981V16.6652C57.0981 17.7158 57.3432 18.5312 57.8335 19.1115C58.3337 19.6918 59.0741 19.982 60.0546 19.982C60.5449 19.982 60.9851 19.8969 61.3753 19.7268C61.7755 19.5567 62.1157 19.3166 62.3958 19.0064C62.676 18.6863 62.8911 18.3111 63.0412 17.8809C63.1913 17.4406 63.2663 16.9604 63.2663 16.4401V7.19531H67.6486V23.2837H63.2663V20.6273H63.1763C62.8961 21.2376 62.5259 21.7679 62.0657 22.2181C61.6154 22.6683 61.0702 23.0135 60.4298 23.2537C59.7995 23.4938 59.0791 23.6138 58.2687 23.6138Z" fill="#3C4F5F"/>
<path d="M140.793 40.4794C140.095 40.4794 139.486 40.3641 138.966 40.1335C138.452 39.8971 138.041 39.5748 137.734 39.1669C137.426 38.753 137.243 38.2742 137.184 37.7302L137.175 37.6504H138.337L138.354 37.7302C138.449 38.2683 138.706 38.6969 139.126 39.0161C139.546 39.3295 140.101 39.4862 140.793 39.4862C141.266 39.4862 141.671 39.4211 142.008 39.2911C142.351 39.161 142.614 38.9748 142.797 38.7324C142.986 38.484 143.081 38.2003 143.081 37.881V37.8721C143.081 37.4701 142.957 37.1509 142.709 36.9144C142.46 36.6779 142.026 36.4857 141.405 36.3379L140.013 36.0098C139.433 35.8679 138.951 35.6876 138.567 35.4688C138.189 35.2501 137.905 34.984 137.716 34.6707C137.532 34.3514 137.441 33.979 137.441 33.5533V33.5444C137.441 33.0301 137.58 32.5778 137.858 32.1876C138.141 31.7915 138.529 31.4811 139.019 31.2564C139.516 31.0318 140.084 30.9194 140.722 30.9194C141.378 30.9194 141.949 31.0377 142.434 31.2742C142.924 31.5047 143.312 31.827 143.595 32.2408C143.885 32.6487 144.051 33.1188 144.092 33.6509L144.101 33.7484H142.984L142.975 33.6863C142.904 33.1483 142.67 32.7197 142.274 32.4004C141.884 32.0753 141.367 31.9127 140.722 31.9127C140.302 31.9127 139.936 31.9807 139.622 32.1166C139.309 32.2467 139.067 32.4329 138.895 32.6753C138.724 32.9118 138.638 33.1867 138.638 33.5001V33.509C138.638 33.7514 138.694 33.9701 138.807 34.1652C138.925 34.3544 139.108 34.517 139.356 34.653C139.611 34.7889 139.942 34.9072 140.35 35.0077L141.733 35.3358C142.655 35.5546 143.309 35.859 143.693 36.2492C144.083 36.6335 144.278 37.1479 144.278 37.7923V37.8012C144.278 38.3274 144.128 38.7915 143.826 39.1935C143.524 39.5955 143.111 39.9118 142.584 40.1424C142.064 40.3671 141.467 40.4794 140.793 40.4794Z" fill="#3C4F5F"/>
<path d="M124.94 40.3108V31.0879H126.111V32.6664H126.137C126.374 32.1639 126.746 31.75 127.255 31.4248C127.763 31.0938 128.387 30.9282 129.126 30.9282C130.149 30.9282 130.947 31.2357 131.52 31.8505C132.094 32.4654 132.38 33.3167 132.38 34.4046V40.3108H131.21V34.5997C131.21 33.7424 131.003 33.0891 130.589 32.6398C130.175 32.1905 129.575 31.9658 128.789 31.9658C128.251 31.9658 127.781 32.087 127.379 32.3294C126.977 32.5718 126.663 32.9088 126.439 33.3404C126.22 33.7661 126.111 34.2686 126.111 34.848V40.3108H124.94Z" fill="#3C4F5F"/>
<path d="M115.907 40.4794C115.073 40.4735 114.34 40.2784 113.707 39.8941C113.075 39.5039 112.581 38.9511 112.226 38.2357C111.878 37.5204 111.703 36.6749 111.703 35.6994V35.6817C111.703 34.7062 111.878 33.8637 112.226 33.1542C112.581 32.4389 113.075 31.889 113.707 31.5047C114.34 31.1145 115.07 30.9194 115.898 30.9194C116.737 30.9194 117.47 31.1145 118.097 31.5047C118.73 31.889 119.223 32.4359 119.578 33.1454C119.933 33.8548 120.11 34.7003 120.11 35.6817V35.6994C120.11 36.6808 119.933 37.5292 119.578 38.2446C119.223 38.9541 118.733 39.5039 118.106 39.8941C117.479 40.2843 116.746 40.4794 115.907 40.4794ZM115.916 39.4329C116.519 39.4329 117.045 39.2851 117.494 38.9895C117.943 38.6939 118.292 38.2653 118.541 37.7036C118.789 37.142 118.913 36.4739 118.913 35.6994V35.6817C118.913 34.9013 118.789 34.2332 118.541 33.6775C118.292 33.1217 117.94 32.699 117.485 32.4093C117.036 32.1137 116.507 31.9659 115.898 31.9659C115.301 31.9659 114.777 32.1137 114.328 32.4093C113.879 32.7049 113.527 33.1306 113.273 33.6863C113.024 34.2421 112.9 34.9072 112.9 35.6817V35.6994C112.9 36.4739 113.024 37.142 113.273 37.7036C113.527 38.2653 113.879 38.6939 114.328 38.9895C114.777 39.2851 115.307 39.4329 115.916 39.4329Z" fill="#3C4F5F"/>
<path d="M105.613 40.3108V31.0878H106.784V40.3108H105.613ZM106.198 29.4206C105.985 29.4206 105.802 29.3467 105.648 29.1989C105.501 29.0452 105.427 28.8589 105.427 28.6402C105.427 28.4274 105.501 28.247 105.648 28.0992C105.802 27.9455 105.985 27.8687 106.198 27.8687C106.417 27.8687 106.6 27.9455 106.748 28.0992C106.902 28.247 106.979 28.4274 106.979 28.6402C106.979 28.8589 106.902 29.0452 106.748 29.1989C106.6 29.3467 106.417 29.4206 106.198 29.4206Z" fill="#3C4F5F"/>
<path d="M99.8436 40.4794C99.0868 40.4794 98.5193 40.2932 98.1409 39.9207C97.7684 39.5423 97.5822 38.9511 97.5822 38.147V32.0723H96.2253V31.0879H97.5822V28.5959H98.7883V31.0879H100.606V32.0723H98.7883V38.1293C98.7883 38.6378 98.8947 38.9925 99.1075 39.1935C99.3263 39.3945 99.6514 39.495 100.083 39.495C100.184 39.495 100.278 39.4921 100.367 39.4862C100.461 39.4743 100.541 39.4655 100.606 39.4595V40.4084C100.518 40.4262 100.402 40.441 100.26 40.4528C100.124 40.4705 99.9855 40.4794 99.8436 40.4794Z" fill="#3C4F5F"/>
<path d="M87.6084 40.4705C86.9285 40.4705 86.3462 40.3316 85.8614 40.0537C85.3766 39.7758 85.0041 39.3767 84.744 38.8565C84.4838 38.3362 84.3538 37.7154 84.3538 36.9941V31.0879H85.5244V36.799C85.5244 37.6563 85.7313 38.3096 86.1451 38.7589C86.5649 39.2082 87.165 39.4329 87.9454 39.4329C88.3533 39.4329 88.7199 39.3649 89.0451 39.2289C89.3702 39.087 89.6511 38.889 89.8875 38.6348C90.1299 38.3805 90.3132 38.079 90.4374 37.7302C90.5674 37.3755 90.6325 36.9823 90.6325 36.5507V31.0879H91.7942V40.3109H90.6325V38.7323H90.597C90.4433 39.0634 90.2275 39.362 89.9496 39.628C89.6717 39.8881 89.3348 40.0951 88.9386 40.2488C88.5484 40.3966 88.105 40.4705 87.6084 40.4705Z" fill="#3C4F5F"/>
<path d="M77.8657 40.3108V27.5139H79.0363V40.3108H77.8657Z" fill="#3C4F5F"/>
<path d="M68.7524 40.4794C67.9188 40.4735 67.1857 40.2784 66.5531 39.8941C65.9204 39.5039 65.4268 38.9511 65.0721 38.2357C64.7232 37.5204 64.5488 36.6749 64.5488 35.6994V35.6817C64.5488 34.7062 64.7232 33.8637 65.0721 33.1542C65.4268 32.4389 65.9204 31.889 66.5531 31.5047C67.1857 31.1145 67.9158 30.9194 68.7435 30.9194C69.583 30.9194 70.3161 31.1145 70.9428 31.5047C71.5754 31.889 72.0691 32.4359 72.4238 33.1454C72.7786 33.8548 72.9559 34.7003 72.9559 35.6817V35.6994C72.9559 36.6808 72.7786 37.5292 72.4238 38.2446C72.0691 38.9541 71.5784 39.5039 70.9517 39.8941C70.325 40.2843 69.5919 40.4794 68.7524 40.4794ZM68.7612 39.4329C69.3643 39.4329 69.8905 39.2851 70.3398 38.9895C70.7891 38.6939 71.1379 38.2653 71.3862 37.7036C71.6346 37.142 71.7587 36.4739 71.7587 35.6994V35.6817C71.7587 34.9013 71.6346 34.2332 71.3862 33.6775C71.1379 33.1217 70.7862 32.699 70.3309 32.4093C69.8816 32.1137 69.3525 31.9659 68.7435 31.9659C68.1464 31.9659 67.6232 32.1137 67.1738 32.4093C66.7245 32.7049 66.3727 33.1306 66.1185 33.6863C65.8702 34.2421 65.746 34.9072 65.746 35.6817V35.6994C65.746 36.4739 65.8702 37.142 66.1185 37.7036C66.3727 38.2653 66.7245 38.6939 67.1738 38.9895C67.6232 39.2851 68.1523 39.4329 68.7612 39.4329Z" fill="#3C4F5F"/>
<path d="M56.6768 40.4794C55.9792 40.4794 55.3702 40.3641 54.85 40.1335C54.3356 39.8971 53.9247 39.5748 53.6173 39.1669C53.3099 38.753 53.1266 38.2742 53.0675 37.7302L53.0586 37.6504H54.2203L54.2381 37.7302C54.3327 38.2683 54.5898 38.6969 55.0096 39.0161C55.4294 39.3295 55.9851 39.4862 56.6768 39.4862C57.1498 39.4862 57.5548 39.4211 57.8918 39.2911C58.2347 39.161 58.4978 38.9748 58.6811 38.7324C58.8702 38.484 58.9648 38.2003 58.9648 37.881V37.8721C58.9648 37.4701 58.8407 37.1509 58.5924 36.9144C58.3441 36.6779 57.9095 36.4857 57.2887 36.3379L55.8964 36.0098C55.317 35.8679 54.8352 35.6876 54.4509 35.4688C54.0725 35.2501 53.7887 34.984 53.5996 34.6707C53.4163 34.3514 53.3246 33.979 53.3246 33.5533V33.5444C53.3246 33.0301 53.4636 32.5778 53.7414 32.1876C54.0252 31.7915 54.4125 31.4811 54.9032 31.2564C55.3998 31.0318 55.9674 30.9194 56.6059 30.9194C57.2621 30.9194 57.8327 31.0377 58.3175 31.2742C58.8082 31.5047 59.1954 31.827 59.4792 32.2408C59.7689 32.6487 59.9344 33.1188 59.9758 33.6509L59.9847 33.7484H58.8673L58.8584 33.6863C58.7875 33.1483 58.5539 32.7197 58.1578 32.4004C57.7676 32.0753 57.2503 31.9127 56.6059 31.9127C56.1861 31.9127 55.8196 31.9807 55.5062 32.1166C55.1929 32.2467 54.9505 32.4329 54.779 32.6753C54.6076 32.9118 54.5219 33.1867 54.5219 33.5001V33.509C54.5219 33.7514 54.578 33.9701 54.6904 34.1652C54.8086 34.3544 54.9919 34.517 55.2402 34.653C55.4944 34.7889 55.8255 34.9072 56.2334 35.0077L57.6169 35.3358C58.5392 35.5546 59.1925 35.859 59.5768 36.2492C59.967 36.6335 60.1621 37.1479 60.1621 37.7923V37.8012C60.1621 38.3274 60.0113 38.7915 59.7098 39.1935C59.4083 39.5955 58.9944 39.9118 58.4682 40.1424C57.948 40.3671 57.3508 40.4794 56.6768 40.4794Z" fill="#3C4F5F"/>
<rect y="2" width="42" height="42" rx="11.76" fill="#3C4F5F"/>
<rect y="2" width="42" height="42" rx="11.76" fill="url(#paint0_linear_4043_1070)" fill-opacity="0.5"/>
<path d="M32.042 11.0811H19.2973C18.8321 11.0803 18.3713 11.1713 17.9413 11.3488C17.5113 11.5263 17.1205 11.7869 16.7913 12.1155C16.4621 12.4442 16.2009 12.8346 16.0227 13.2643C15.8445 13.694 15.7528 14.1546 15.7528 14.6198V16.9611C15.7528 17.4263 15.8445 17.8869 16.0227 18.3166C16.2009 18.7463 16.4621 19.1367 16.7913 19.4654C17.1205 19.794 17.5113 20.0546 17.9413 20.2321C18.3713 20.4096 18.8321 20.5006 19.2973 20.4998H21.4256C21.9393 20.4998 22.1947 20.7354 22.1947 21.2093V25.4916C22.1947 25.9655 21.9393 26.2011 21.4256 26.2011H20.4324C19.9216 26.2011 19.6634 25.9655 19.6634 25.4916V23.0794H15.5825V26.0308C15.5825 26.0308 15.7528 30.0946 21.0965 30.0946C26.4401 30.0946 26.2046 26.0308 26.2046 26.0308V20.6389C26.2046 18.5578 24.9985 17.5173 22.5863 17.5173H19.7684V14.1119H29.2297V24.8446C29.2297 26.9964 28.3749 29.06 26.8533 30.5816C25.3318 32.1032 23.2681 32.9579 21.1163 32.9579C18.9645 32.9579 16.9009 32.1032 15.3793 30.5816C13.8577 29.06 13.0029 26.9964 13.0029 24.8446V11.0811H9.08105V24.8446C9.08105 28.0365 10.3491 31.0977 12.6061 33.3548C14.8632 35.6118 17.9244 36.8798 21.1163 36.8798C24.3083 36.8798 27.3695 35.6118 29.6265 33.3548C31.8836 31.0977 33.1516 28.0365 33.1516 24.8446V11.0811H32.042Z" fill="white"/>
<defs>
<linearGradient id="paint0_linear_4043_1070" x1="37.8" y1="44" x2="4.725" y2="2" gradientUnits="userSpaceOnUse">
<stop stop-color="white" stop-opacity="0"/>
<stop offset="1" stop-color="white"/>
</linearGradient>
</defs>
</svg>
